<svg id="Lager_1" data-name="Lager 1" xmlns="http://www.w3.org/2000/svg" viewBox="0 0 565.62 225.73"><defs><style>.cls-1{fill:#fff;}</style></defs><title>logo</title><path class="cls-1" d="M86.11,87v14.2H43.84V41.91H85.36v14.2H60.13v8.36H81.68V77.66H60.13V87Z" transform="translate(-10.9 -10.9)"/><path class="cls-1" d="M146.91,101.22V70L137,92h-8.68l-9.94-22v31.24H102.06V41.91h17.79l12.78,27.9,12.86-27.9H163.2v59.31Z" transform="translate(-10.9 -10.9)"/><path class="cls-1" d="M226.6,101.22V70l-9.94,22H208L198,70v31.24H181.74V41.91h17.79l12.78,27.9,12.87-27.9h17.71v59.31Z" transform="translate(-10.9 -10.9)"/><path class="cls-1" d="M276.8,41.91h14.86l20.55,59.31H295.67l-3.59-11.61H276.3l-3.51,11.61H256.16Zm12.69,36.84-5.26-18.38-5.51,18.38Z" transform="translate(-10.9 -10.9)"/><path class="cls-1" d="M360.74,61.29a46.94,46.94,0,0,0-10.23-4.55,18.42,18.42,0,0,0-5.47-.88,7.67,7.67,0,0,0-3.47.67,2.35,2.35,0,0,0-1.29,2.26,2.6,2.6,0,0,0,.75,1.92,7.12,7.12,0,0,0,2.17,1.38,28.49,28.49,0,0,0,3.47,1.21c1.36.39,2.91.86,4.63,1.42a61,61,0,0,1,7.4,2.75A23.44,23.44,0,0,1,364.33,71a13.63,13.63,0,0,1,3.59,5,17.93,17.93,0,0,1,1.26,7.1,18.66,18.66,0,0,1-2,9A16.08,16.08,0,0,1,362,97.88a21.89,21.89,0,0,1-7.27,3.13,35.22,35.22,0,0,1-8.14,1,46.8,46.8,0,0,1-6.69-.5,57.45,57.45,0,0,1-6.8-1.42,60,60,0,0,1-6.52-2.17,41.68,41.68,0,0,1-5.8-2.84l7-14.29a47.54,47.54,0,0,0,6.1,3.26A42.93,42.93,0,0,0,340,86.27a24.15,24.15,0,0,0,6.9,1,7,7,0,0,0,3.71-.71,2.17,2.17,0,0,0,1.05-1.88,2.67,2.67,0,0,0-1.05-2.13A9.61,9.61,0,0,0,347.71,81c-1.22-.44-2.63-.89-4.22-1.33s-3.27-1-5.05-1.59a43.84,43.84,0,0,1-6.77-2.88A18.24,18.24,0,0,1,327,71.69a12.57,12.57,0,0,1-2.72-4.47,17.52,17.52,0,0,1-.88-5.76,19.9,19.9,0,0,1,1.8-8.69,17.92,17.92,0,0,1,4.89-6.26,21.82,21.82,0,0,1,7.05-3.8,26.76,26.76,0,0,1,8.4-1.3,31.73,31.73,0,0,1,6.35.63,51.22,51.22,0,0,1,6,1.59,57.76,57.76,0,0,1,5.39,2.08q2.5,1.14,4.51,2.13Z" transform="translate(-10.9 -10.9)"/><path class="cls-1" d="M88.7,205.63V174.39l-9.94,22H70.07l-9.94-22v31.24H43.84V146.32H61.63l12.78,27.9,12.87-27.9H105v59.31Z" transform="translate(-10.9 -10.9)"/><path class="cls-1" d="M138.89,146.32h14.87l20.55,59.31H157.77L154.18,194H138.39l-3.5,11.61H118.26Zm12.7,36.84-5.26-18.38-5.51,18.38Z" transform="translate(-10.9 -10.9)"/><path class="cls-1" d="M228.35,160.52h-17v45.11H195V160.52H177.9v-14.2h50.45Z" transform="translate(-10.9 -10.9)"/><path class="cls-1" d="M304.61,205.63l-3.17-3.34a27.91,27.91,0,0,1-7.48,3.17,31,31,0,0,1-7.81,1,22.68,22.68,0,0,1-9.06-1.67,20.11,20.11,0,0,1-6.51-4.34,17.84,17.84,0,0,1-4-6.06,18.38,18.38,0,0,1-1.34-6.8,15.55,15.55,0,0,1,2.47-8.82,28.56,28.56,0,0,1,5.88-6.47,25.52,25.52,0,0,1-3.76-5.8,14.32,14.32,0,0,1-1.08-5.64,15.08,15.08,0,0,1,1.34-6.48,13.63,13.63,0,0,1,3.63-4.8,16.26,16.26,0,0,1,5.47-3,22,22,0,0,1,6.93-1.05,26.38,26.38,0,0,1,6.39.79,17.08,17.08,0,0,1,5.6,2.51,13,13,0,0,1,4,4.43,13.35,13.35,0,0,1,1.5,6.55,15.88,15.88,0,0,1-2.09,8.11,26.06,26.06,0,0,1-5.59,6.6l6.84,7.26a26.5,26.5,0,0,0,1.42-5,31.91,31.91,0,0,0,.51-5.89h12.78A45.75,45.75,0,0,1,316,182.45a38.23,38.23,0,0,1-3.84,9.23l13.28,13.95ZM287.82,194.1a11.84,11.84,0,0,0,4.93-1.09l-9.44-10.1q-2.83,2.34-2.84,4.68a6.53,6.53,0,0,0,.38,2,6.31,6.31,0,0,0,1.25,2.13,6.84,6.84,0,0,0,2.3,1.67A7.93,7.93,0,0,0,287.82,194.1Zm-4.67-33.91a2.93,2.93,0,0,0,.62,1.88,22.94,22.94,0,0,0,2.13,2.21,13.31,13.31,0,0,0,2.42-2,3.27,3.27,0,0,0,.76-2.22,2.85,2.85,0,0,0-.8-2.17,3,3,0,0,0-2.13-.75,2.82,2.82,0,0,0-2.21.88A3.15,3.15,0,0,0,283.15,160.19Z" transform="translate(-10.9 -10.9)"/><path class="cls-1" d="M416,190.43A13,13,0,0,1,409.69,202a21.67,21.67,0,0,1-6.81,2.71,37,37,0,0,1-8.23.88H365.5V146.32h34.41a11.73,11.73,0,0,1,5.6,1.34,14,14,0,0,1,4.26,3.47,16.06,16.06,0,0,1,2.72,4.84,16.53,16.53,0,0,1,1,5.55,16.07,16.07,0,0,1-2.13,8,13.35,13.35,0,0,1-6.39,5.72,15.79,15.79,0,0,1,8.06,5.22Q415.94,184.16,416,190.43Zm-34.16-30.24v9.1H392.9a5.34,5.34,0,0,0,3.05-.92c.92-.61,1.38-1.83,1.38-3.67a4.46,4.46,0,0,0-1.17-3.47,4,4,0,0,0-2.76-1Zm17.62,26.89a5.65,5.65,0,0,0-1.17-3.63,3.68,3.68,0,0,0-3-1.46H381.79v9.94h12.86a4.88,4.88,0,0,0,3.39-1.25A4.66,4.66,0,0,0,399.41,187.08Z" transform="translate(-10.9 -10.9)"/><path class="cls-1" d="M445.44,146.32H460.3l20.55,59.31H464.31L460.72,194H444.93l-3.5,11.61H424.8Zm12.69,36.84-5.26-18.38-5.51,18.38Z" transform="translate(-10.9 -10.9)"/><path class="cls-1" d="M494.13,205.63V146.32h27.23a18,18,0,0,1,8,1.8,21,21,0,0,1,6.31,4.68,21.83,21.83,0,0,1,4.13,6.6,19.81,19.81,0,0,1,1.51,7.47,21.18,21.18,0,0,1-2.26,9.65,19.7,19.7,0,0,1-6.26,7.31l12.52,21.8H527l-10.44-18.21h-6.1v18.21Zm16.29-32.41H520.7a3.6,3.6,0,0,0,2.79-1.67,7.42,7.42,0,0,0,1.3-4.68,6.69,6.69,0,0,0-1.51-4.72,4.22,4.22,0,0,0-3-1.63h-9.86Z" transform="translate(-10.9 -10.9)"/><path class="cls-1" d="M10.9,10.9V236.64H576.52V10.9ZM24.83,24.83H389.57v92H24.83ZM562.6,222.72H24.83v-92H562.6ZM403.49,116.81v-92H562.6v92Z" transform="translate(-10.9 -10.9)"/></svg>