<svg id="Lager_1" data-name="Lager 1" xmlns="http://www.w3.org/2000/svg" viewBox="0 0 234.48 234.52"><defs><style>.cls-1{fill:#cc5529;}</style></defs><title>settings</title><path class="cls-1" d="M239.24,143.36q-6-3.47-12.09-6.86a9.89,9.89,0,0,1-5.43-9.26c0-4.9.08-9.79-.39-14.68a9.29,9.29,0,0,1,4.44-9.06c4.16-2.79,8.32-5.58,12.42-8.47,5.15-3.62,6.15-7.21,3.59-12.94-2.64-5.89-5.36-11.74-8.11-17.58S227.3,57,220.91,58.64c-4.36,1.15-8.76,2.16-13,3.5a9.58,9.58,0,0,1-10.65-2.82,109.21,109.21,0,0,0-10.72-10c-3.56-2.9-4.36-6.59-3.49-10.87s1.79-8.6,2.58-12.91c1.23-6.68-.73-10.19-7-12.58q-8.86-3.4-17.77-6.68c-5.7-2.1-9.46-.69-12.66,4.66-2.19,3.67-4.53,7.26-6.42,11.08-2.56,5.17-6.53,7.19-12.16,6.92a74.43,74.43,0,0,0-11.37.33c-4.61.5-8.11-.93-10.68-4.8C104.78,20.27,102,16.11,99.09,12c-3.11-4.38-7-5.61-11.84-3.49q-9.52,4.22-18.83,8.9c-5,2.48-6.45,6.17-5,11.58,1.2,4.6,2.5,9.16,3.72,13.75,1.1,4.18.53,7.86-2.79,11.06S58,60.32,55.06,63.75c-3.13,3.63-6.77,4.8-11.46,3.7a146,146,0,0,0-14.39-2.6c-5.62-.74-8.39,1-10.48,6.33Q15.06,80.52,11.6,90c-2,5.37-.61,9.25,4.27,12.2q6.26,3.8,12.67,7.32a10.42,10.42,0,0,1,5.74,9.89c0,4.77-.05,9.54.39,14.31.37,4-1.39,7.07-4.76,9.27q-6,3.92-11.87,8c-5.08,3.51-6.12,7.27-3.58,13,2.64,5.89,5.36,11.75,8.11,17.59s6.34,7.54,12.77,5.84c4.47-1.19,9-2.32,13.39-3.62a9.82,9.82,0,0,1,10.39,2.65A109.5,109.5,0,0,0,68,194.6c4.44,3.48,5.48,7.74,4.31,13-1.12,5-2,10-2.66,13.73-.08,6.15,1.52,8.55,6.36,10.46q9.33,3.69,18.76,7.13c5.62,2,9.23.7,12.38-4.53,2.39-4,4.8-7.93,7-12s5.64-5.88,10.16-5.94,9.31-.05,14-.29a10,10,0,0,1,9.53,4.93c2.74,4.19,5.55,8.34,8.48,12.41s6.74,5.54,10.83,3.8q10.74-4.57,21.17-9.88c4.12-2.1,5.44-5.68,4.32-10.19s-2.35-9.2-3.71-13.75c-1.46-4.84-.36-8.79,3.32-12.27a118.41,118.41,0,0,0,8.58-9.06c3.12-3.66,6.85-4.78,11.47-3.76s9.07,1.92,13.65,2.61c6.46,1,9.25-.72,11.59-6.77q3.42-8.85,6.69-17.76C246.45,150.2,245.14,146.75,239.24,143.36ZM127.72,172.2c-27.1-.15-49.39-22.65-49.21-49.68C78.7,95.27,101,73.08,128.1,73.27c27.35.19,49.49,22.35,49.4,49.44A49.72,49.72,0,0,1,127.72,172.2Z" transform="translate(-10.73 -5.33)"/></svg>